<?xml version="1.0" encoding="utf-8"?>
<!-- Generator: Adobe Illustrator 23.0.6, SVG Export Plug-In . SVG Version: 6.00 Build 0)  -->
<svg version="1.1" id="Capa_1" xmlns="http://www.w3.org/2000/svg" xmlns:xlink="http://www.w3.org/1999/xlink" x="0px" y="0px"
	 viewBox="0 0 588.8 674.8" style="enable-background:new 0 0 588.8 674.8;" xml:space="preserve">
<style type="text/css">
	.st0{fill:#59B6AE;}
</style>
<g>
	<g>
		<path class="st0" d="M194.4,156.8c-99.3,0-180,80.7-180,180c0,33.5,9.3,66.3,26.9,94.7l142.9,230.3c2.7,4.4,7.6,7.1,12.7,7.1
			c0,0,0.1,0,0.1,0c5.2,0,10.1-2.8,12.8-7.3L349,429c16.6-27.8,25.4-59.7,25.4-92.2C374.4,237.6,293.7,156.8,194.4,156.8z
			 M323.3,413.6L196.7,625L66.8,415.7c-14.6-23.6-22.6-50.9-22.6-78.8c0-82.7,67.5-150.2,150.2-150.2s150.1,67.5,150.1,150.2
			C344.5,363.9,337.1,390.5,323.3,413.6z"/>
	</g>
</g>
<g>
	<g>
		<path class="st0" d="M194.4,247.8c-49.6,0-90,40.4-90,90c0,49.3,39.7,90,90,90c50.9,0,90-41.2,90-90
			C284.4,288.2,244,247.8,194.4,247.8z M194.4,398c-33.3,0-60.2-27-60.2-60.2c0-33.1,27.1-60.2,60.2-60.2s60.1,27.1,60.1,60.2
			C254.5,370.5,228.2,398,194.4,398z"/>
	</g>
</g>
</svg>
