<?xml version="1.0" encoding="utf-8"?>
<!-- Generator: Adobe Illustrator 23.0.6, SVG Export Plug-In . SVG Version: 6.00 Build 0)  -->
<svg version="1.1" id="Capa_1" xmlns="http://www.w3.org/2000/svg" xmlns:xlink="http://www.w3.org/1999/xlink" x="0px" y="0px"
	 viewBox="0 0 512 512" style="enable-background:new 0 0 512 512;" xml:space="preserve">
<style type="text/css">
	.st0{fill:#1CBFD8;}
</style>
<g>
	<g>
		<path class="st0" d="M275.7,256l154.8-154.8c5.5-5.5,5.5-14.3,0-19.7c-5.5-5.4-14.3-5.5-19.7,0L256,236.3L101.2,81.5
			c-5.5-5.5-14.3-5.5-19.7,0c-5.4,5.5-5.5,14.3,0,19.7L236.3,256L81.5,410.8c-5.5,5.5-5.5,14.3,0,19.7c2.7,2.7,6.3,4.1,9.9,4.1
			s7.1-1.4,9.9-4.1L256,275.7l154.8,154.8c2.7,2.7,6.3,4.1,9.9,4.1s7.1-1.4,9.9-4.1c5.5-5.5,5.5-14.3,0-19.7L275.7,256z"/>
	</g>
</g>
</svg>
